<?xml version="1.0" standalone="no"?>
<!DOCTYPE svg PUBLIC "-//W3C//DTD SVG 20010904//EN"
 "http://www.w3.org/TR/2001/REC-SVG-20010904/DTD/svg10.dtd">
<svg version="1.0" xmlns="http://www.w3.org/2000/svg"
 width="512.000000pt" height="512.000000pt" viewBox="0 0 512.000000 512.000000"
 preserveAspectRatio="xMidYMid meet">
<metadata>
Created by potrace 1.14, written by Peter Selinger 2001-2017
</metadata>
<g transform="translate(0.000000,512.000000) scale(0.100000,-0.100000)"
fill="#000000" stroke="none">
<path d="M2379 5116 c-2 -2 -35 -6 -74 -10 -256 -22 -559 -104 -806 -217 -186
-85 -523 -294 -498 -310 6 -3 9 -30 7 -60 l-3 -53 -57 0 c-34 0 -59 -4 -59
-10 -1 -6 -2 -867 -3 -1913 l-1 -1902 440 2 440 2 -1 1910 0 1910 -59 0 c-33
0 -62 3 -65 7 -3 3 -3 29 -2 57 l4 51 124 0 124 0 0 -2024 c0 -1610 -3 -2025
-12 -2028 -7 -2 -205 -3 -440 -3 -236 1 -428 0 -428 -1 0 -6 128 -94 210 -145
78 -48 229 -127 340 -177 93 -42 350 -122 470 -146 217 -43 289 -50 525 -51
217 0 307 8 480 41 44 8 91 18 105 20 201 38 548 182 760 314 81 51 210 139
210 144 0 2 -159 2 -352 2 l-353 0 -60 90 c-33 50 -141 218 -240 373 -99 155
-237 370 -307 479 -167 260 -230 358 -248 387 -8 14 -109 172 -225 352 -115
179 -211 333 -213 342 -1 9 35 75 81 146 46 72 213 333 372 580 159 248 328
511 375 585 174 271 357 557 409 638 l53 82 365 0 c417 0 389 -11 238 92 -336
227 -690 365 -1085 423 -19 3 -53 7 -75 11 -44 6 -460 15 -466 10z m-913 -429
c40 -14 52 -68 45 -202 -1 -19 -7 -20 -178 -18 -98 0 -183 1 -189 2 -14 1 -11
160 5 188 6 13 25 26 42 30 36 10 246 9 275 0z m147 -337 l27 0 -2 -122 -3
-123 -312 0 -313 -1 0 123 0 122 43 3 c33 2 380 1 560 -2z m26 -494 l0 -125
-314 -1 -315 0 0 125 0 125 315 0 314 0 0 -124z m0 -372 l-1 -124 -314 0 -314
0 0 124 0 124 315 0 316 1 -2 -125z m-1 -372 l3 -122 -43 -1 c-54 0 -535 0
-565 0 -23 1 -23 3 -23 124 l0 122 313 0 312 0 3 -123z m1 -369 c0 -85 -4
-122 -12 -125 -7 -2 -147 -4 -312 -4 l-300 1 -3 119 c-1 67 1 122 7 125 5 3
147 6 315 6 l306 0 -1 -122z m-2 -375 l-2 -123 -310 0 -310 0 -3 123 -3 122
316 0 315 0 -3 -122z m3 -373 l0 -125 -315 0 -315 0 0 125 0 125 315 0 315 0
0 -125z m-2 -372 l2 -123 -315 0 -315 0 0 124 0 125 313 -2 312 -2 3 -122z m2
-370 l0 -123 -27 -1 c-100 -3 -580 -4 -590 -1 -10 3 -13 36 -13 121 0 65 2
120 4 122 2 2 144 4 315 4 l311 0 0 -122z m-8 -252 c9 -1 9 -223 0 -237 -5 -6
-111 -10 -314 -10 l-308 0 0 126 0 125 307 -2 c170 -1 311 -2 315 -2z"/>
<path d="M692 4309 c-320 -338 -548 -780 -641 -1239 -37 -185 -45 -273 -46
-500 0 -170 6 -289 19 -365 3 -16 8 -43 10 -60 3 -25 28 -148 41 -205 38 -164
132 -407 226 -586 86 -162 243 -385 355 -504 23 -25 54 -58 68 -75 14 -16 28
-27 31 -24 3 3 4 820 3 1815 l-3 1810 -63 -67z"/>
<path d="M4379 4195 c-1052 -1638 -1051 -1637 -1042 -1656 4 -9 253 -400 553
-868 l545 -851 48 53 c166 179 349 476 451 730 76 188 138 421 161 597 15 120
20 195 20 355 0 220 -10 337 -45 505 -6 30 -14 66 -16 80 -3 14 -16 64 -30
112 -103 367 -300 729 -545 1002 l-37 40 -63 -99z"/>
</g>
</svg>
