<svg xmlns="http://www.w3.org/2000/svg" viewBox="0 0 384 384">
<style type="text/css">
	@keyframes favicon-animation{
		0%{fill:#FF0000;}
		10%{fill:#FF6E00;}
		20%{fill:#C4D413;}
		30%{fill:#7AD413;}
		40%{fill:#128EE6;}
		50%{fill:#DF12E6;}
		60%{fill:#128EE6;}
		70%{fill:#7AD413;}
		80%{fill:#C4D413;}
		90%{fill:#FF6E00;}
		100%{fill:#FF0000;}
	}
</style>
<g>
	<path d="M192,0c44.5,0,85.4,15.1,117.9,40.5h-54.8l-97.5,152l97.5,152h53.5C276.3,369.3,235.9,384,192,384
		s-84.3-14.7-116.6-39.5h66.3v-304h-18.8V49h9.4V336H66.4V49h9.4v-8.5h-1.7C106.6,15.1,147.5,0,192,0L192,0z M333.2,61.9
		l-83.8,130.6l83.4,130C364.6,288.2,384,242.4,384,192C384,141.8,364.7,96.1,333.2,61.9L333.2,61.9z M57,328.5
		C21.8,293.7,0,245.4,0,192C0,138.6,21.8,90.3,57,55.5V328.5L57,328.5z M75.8,308.8v18.6h47.1v-18.6H75.8L75.8,308.8z M75.8,280.9
		v18.6h47.1v-18.6H75.8L75.8,280.9z M75.8,253v18.6h47.1V253H75.8L75.8,253z M75.8,225.1v18.6h47.1v-18.6H75.8L75.8,225.1z
		 M75.8,197.1v18.6h47.1v-18.6H75.8L75.8,197.1z M75.8,169.2v18.6h47.1v-18.6H75.8L75.8,169.2z M75.8,141.3v18.6h47.1v-18.6H75.8
		L75.8,141.3z M75.8,113.4V132h47.1v-18.6H75.8L75.8,113.4z M75.8,85.5v18.6h47.1V85.5H75.8L75.8,85.5z M75.8,57.6v18.6h47.1V57.6
		H75.8L75.8,57.6z M91.1,31.9c-3.2,0-5.9,2.7-5.9,5.9V49h28.3V37.8c0-3.2-2.7-5.9-5.9-5.9H91.1z"
		  style="display:block;animation:60s linear infinite both favicon-animation; transform-origin:50% 50%;"/>
</g>
</svg>
