<svg xmlns="http://www.w3.org/2000/svg" viewBox="0 0 384 232.5">
    <style type="text/css">
        @keyframes color-animation{
            0%{fill:#FF0000;}
            10%{fill:#FF6E00;}
            20%{fill:#C4D413;}
            30%{fill:#7AD413;}
            40%{fill:#128EE6;}
            50%{fill:#DF12E6;}
            60%{fill:#128EE6;}
            70%{fill:#7AD413;}
            80%{fill:#C4D413;}
            90%{fill:#FF6E00;}
            100%{fill:#FF0000;}
        }
    </style>
    <g>
        <path d="M192.3,28.8c-39.8,0-73.5,27-84,63.5c-9.1-19.4-28.8-33-51.5-33C25.6,59.4,0,85.1,0,116.2
		c0,31.2,25.6,56.8,56.8,56.8c22.7,0,42.4-13.6,51.5-33c10.5,36.6,44.2,63.6,84,63.6c39.5,0,73.1-26.6,83.8-62.7
		c9.3,19,28.7,32.2,51.1,32.2c31.2,0,56.8-25.7,56.8-56.8c0-31.2-25.7-56.8-56.8-56.8c-22.4,0-41.8,13.2-51.1,32.2
		C265.4,55.4,231.8,28.8,192.3,28.8L192.3,28.8z M56.8,92.8c13.2,0,23.5,10.3,23.5,23.5c0,13.2-10.3,23.5-23.5,23.5
		c-13.2,0-23.5-10.3-23.5-23.5C33.4,103.1,43.7,92.8,56.8,92.8L56.8,92.8z M327.2,92.8c13.2,0,23.5,10.3,23.5,23.5
		c0,13.2-10.3,23.5-23.5,23.5c-13.2,0-23.5-10.3-23.5-23.5C303.7,103.1,314,92.8,327.2,92.8L327.2,92.8z M162.3,66h5.1
		c1,0,1.8,0.8,1.8,1.8v3.5h-8.8v-3.5C160.4,66.8,161.3,66,162.3,66L162.3,66z M157.5,74h14.6v5.8h-14.6V74L157.5,74z M157.5,82.6
		h14.6v5.8h-14.6V82.6L157.5,82.6z M157.5,91.3h14.6v5.8h-14.6V91.3L157.5,91.3z M157.5,100h14.6v5.8h-14.6V100L157.5,100z
		 M157.5,108.6h14.6v5.8h-14.6V108.6L157.5,108.6z M157.5,117.3h14.6v5.8h-14.6V117.3L157.5,117.3z M157.5,126h14.6v5.8h-14.6V126
		L157.5,126z M157.5,134.6h14.6v5.8h-14.6V134.6L157.5,134.6z M157.5,143.3h14.6v5.8h-14.6V143.3L157.5,143.3z M157.5,152h14.6v5.8
		h-14.6V152L157.5,152z M172.2,68.7h5.8v94.4h-26.3V68.7h5.8v2.7h-2.9v89.1h20.5V71.3h-2.9V68.7L172.2,68.7z M241.7,163.1h-28.5
		l-30.3-47.2l30.3-47.2h28.5l-30.3,47.2L241.7,163.1z"
              style="display:block;animation:60s linear infinite both color-animation; transform-origin:50% 50%;"
        />
    </g>
</svg>
